<?xml version="1.0" encoding="UTF-8"?>
<svg width="416px" height="416px" viewBox="0 0 416 416" version="1.1" xmlns="http://www.w3.org/2000/svg" xmlns:xlink="http://www.w3.org/1999/xlink">
    <!-- Generator: Sketch 57.1 (83088) - https://sketch.com -->
    <title>ios-analytics</title>
    <desc>Created with Sketch.</desc>
    <defs>
        <linearGradient x1="50%" y1="0%" x2="50%" y2="100%" id="linearGradient-1">
            <stop stop-color="#B64D8A" offset="0%"></stop>
            <stop stop-color="#4A24B3" offset="100%"></stop>
        </linearGradient>
    </defs>
    <g id="Page-1" stroke="none" stroke-width="1" fill="none" fill-rule="evenodd">
        <g id="ios-analytics" fill="url(#linearGradient-1)" fill-rule="nonzero">
            <path d="M208,0 C93.1,0 0,93.1 0,208 C0,322.9 93.1,416 208,416 C322.9,416 416,322.9 416,208 C416,93.1 322.9,0 208,0 Z M28,208 C28,159.9 46.7,114.7 80.7,80.7 C114.7,46.7 159.9,28 208,28 C256.1,28 301.3,46.7 335.3,80.7 C367.5,112.9 386,155.2 387.9,200.4 C379.1,190.1 363.7,176.4 344.1,176.4 C316.6,176.4 302.4,202.1 293.1,219.1 C291.7,221.6 290.4,224 289.2,226.1 C277.8,245.3 261.9,256.1 246.7,255 C233.3,254.1 221.9,243.8 214.5,226.2 C205.3,204.1 185.4,180.4 161.6,177 C150.3,175.4 133.5,177.8 116.9,198.4 C113.7,202.4 110,207.8 105.8,214 C95.4,229.5 79.6,252.8 67.7,254.8 C50.4,257.6 36.8,247.3 31.3,242.5 C29.1,231.3 28,219.7 28,208 L28,208 Z" id="Shape"></path>
        </g>
    </g>
</svg>