<?xml version="1.0" encoding="UTF-8"?>
<svg width="417px" height="416px" viewBox="0 0 417 416" version="1.1" xmlns="http://www.w3.org/2000/svg" xmlns:xlink="http://www.w3.org/1999/xlink">
    <!-- Generator: Sketch 57.1 (83088) - https://sketch.com -->
    <title>ios-link</title>
    <desc>Created with Sketch.</desc>
    <defs>
        <linearGradient x1="50%" y1="0%" x2="50%" y2="99.4615709%" id="linearGradient-1">
            <stop stop-color="#B64D8A" offset="0%"></stop>
            <stop stop-color="#4A24B3" offset="100%"></stop>
        </linearGradient>
        <linearGradient x1="50%" y1="0%" x2="50%" y2="100%" id="linearGradient-2">
            <stop stop-color="#B64D8A" offset="0%"></stop>
            <stop stop-color="#4A24B3" offset="99.4615709%"></stop>
        </linearGradient>
    </defs>
    <g id="Page-1" stroke="none" stroke-width="1" fill="none" fill-rule="evenodd">
        <g id="ios-link" fill-rule="nonzero">
            <path d="M232,293.1 L230.8,293.2 C227.2,293.6 223.8,295.2 221.2,297.7 L156.6,362.3 C142.9,376 124.6,383.5 105.1,383.5 C85.6,383.5 67.3,376 53.6,362.3 C39.9,348.6 32.4,330.3 32.4,310.8 C32.4,291.3 39.9,273 53.6,259.3 L122.2,190.7 C125.7,187.2 129.5,184.1 133.6,181.4 C138.2,178.4 143.2,175.8 148.4,173.9 C153.2,172.1 158.3,170.9 163.4,170.2 C166.8,169.7 170.3,169.5 173.6,169.5 C175,169.5 176.4,169.6 178.2,169.7 C195.9,170.8 212.6,178.3 225,190.7 C232.7,198.4 238.6,207.8 242.1,218 C244.9,226 253.3,230.5 261.4,228.1 C261.5,228.1 261.6,228 261.7,228 C261.8,228 261.9,228 261.9,227.9 C270,225.4 274.7,216.9 272.4,208.8 C268,193.2 260.2,180.1 247.8,167.8 C232.2,152.2 211.9,142 190.2,138.5 C188.3,138.2 186.4,137.9 184.5,137.7 C180.8,137.3 177.1,137.1 173.4,137.1 C170.8,137.1 168.2,137.2 165.7,137.4 C160.3,137.8 154.9,138.6 149.5,139.9 C148.4,140.1 147.4,140.4 146.3,140.7 C139.6,142.5 133,144.9 126.8,148 C116.5,153.1 107.2,159.7 99.1,167.9 L30.5,236.5 C10.9,256.4 0,282.8 0,311 C0,339.2 10.9,365.6 30.7,385.4 C50.5,405.1 76.9,416 105,416 C133.2,416 159.6,405.1 179.4,385.3 L244.7,320 C255.1,309.5 246.7,291.7 232,293.1 Z" id="Path" fill="url(#linearGradient-1)"></path>
            <path d="M385.3,30.7 C365.5,10.9 339.1,0 311,0 C282.9,0 256.4,10.9 236.6,30.7 L172.9,94.4 C163.2,104.1 169.3,120.7 183,121.8 C187.7,122.2 192.3,120.5 195.7,117.2 L259.5,53.6 C273.2,39.9 291.5,32.4 311,32.4 C330.5,32.4 348.8,39.9 362.5,53.6 C376.2,67.3 383.7,85.6 383.7,105.1 C383.7,124.6 376.2,142.9 362.5,156.6 L293.9,225.2 C290.4,228.7 286.6,231.8 282.5,234.5 C277.9,237.5 272.9,240.1 267.7,242 C262.9,243.8 257.8,245 252.7,245.7 C249.3,246.2 245.8,246.4 242.5,246.4 C241.1,246.4 239.6,246.3 237.9,246.2 C220.2,245.1 203.5,237.6 191.1,225.2 C183.8,217.9 178.3,209.2 174.7,199.7 C171.8,192 163.6,187.8 155.6,189.9 C146.7,192.2 141.5,201.6 144.3,210.4 C148.8,224.4 156.4,236.3 168,247.9 L168.2,248.1 C185.1,265 207.6,275.7 231.5,278.2 C235.2,278.6 238.9,278.8 242.6,278.8 C245.2,278.8 247.8,278.7 250.4,278.5 C256.9,278 263.4,276.9 269.7,275.3 C276.4,273.5 283,271.1 289.2,268 C299.5,262.9 308.8,256.3 316.9,248.1 L385.5,179.5 C405.3,159.7 416.2,133.3 416.2,105.1 C416.2,76.9 405.1,50.5 385.3,30.7 L385.3,30.7 Z" id="Path" fill="url(#linearGradient-2)"></path>
        </g>
    </g>
</svg>