<?xml version="1.0" encoding="UTF-8"?>
<svg width="468px" height="486px" viewBox="0 0 468 486" version="1.1" xmlns="http://www.w3.org/2000/svg" xmlns:xlink="http://www.w3.org/1999/xlink">
    <!-- Generator: Sketch 57.1 (83088) - https://sketch.com -->
    <title>light-bulb</title>
    <desc>Created with Sketch.</desc>
    <defs>
        <linearGradient x1="50%" y1="0%" x2="50%" y2="100%" id="linearGradient-1">
            <stop stop-color="#B64D8A" offset="0%"></stop>
            <stop stop-color="#4A24B3" offset="100%"></stop>
        </linearGradient>
    </defs>
    <g id="Page-1" stroke="none" stroke-width="1" fill="none" fill-rule="evenodd">
        <g id="light-bulb" fill="url(#linearGradient-1)" fill-rule="nonzero">
            <path d="M289.4,424.7 L289.4,438.9 C289.4,450.2 281.1,459.6 270.3,461.2 L266.8,474.1 C264.9,481.1 258.6,486 251.3,486 L216.6,486 C209.3,486 203,481.1 201.1,474.1 L197.7,461.2 C186.8,459.5 178.5,450.2 178.5,438.8 L178.5,424.6 C178.5,417 184.6,410.9 192.2,410.9 L275.7,410.9 C283.3,411 289.4,417.1 289.4,424.7 Z M353.7,233.3 C353.7,265.6 340.9,294.9 320.1,316.4 C304.3,332.8 294.1,353.7 290.7,376 C289.2,385.6 280.9,392.7 271.1,392.7 L196.8,392.7 C187.1,392.7 178.7,385.7 177.3,376.1 C173.8,353.8 163.5,332.6 147.7,316.3 C127.3,295.1 114.6,266.3 114.3,234.6 C113.6,168 166.6,114.1 233.2,113.6 C299.7,113.1 353.7,166.9 353.7,233.3 Z M247.5,160.8 C247.5,153.4 241.5,147.3 234,147.3 C186.4,147.3 147.6,186 147.6,233.7 C147.6,241.1 153.6,247.2 161.1,247.2 C168.5,247.2 174.6,241.2 174.6,233.7 C174.6,200.9 201.3,174.3 234,174.3 C241.5,174.3 247.5,168.3 247.5,160.8 Z M234,74.3 C241.4,74.3 247.5,68.3 247.5,60.8 L247.5,13.5 C247.5,6.1 241.5,0 234,0 C226.5,0 220.5,6 220.5,13.5 L220.5,60.8 C220.5,68.3 226.6,74.3 234,74.3 Z M75.1,233.2 C75.1,225.8 69.1,219.7 61.6,219.7 L14.3,219.7 C6.9,219.7 0.8,225.7 0.8,233.2 C0.8,240.6 6.8,246.7 14.3,246.7 L61.6,246.7 C69.1,246.7 75.1,240.7 75.1,233.2 Z M453.7,219.7 L406.4,219.7 C399,219.7 392.9,225.7 392.9,233.2 C392.9,240.6 398.9,246.7 406.4,246.7 L453.7,246.7 C461.1,246.7 467.2,240.7 467.2,233.2 C467.2,225.8 461.2,219.7 453.7,219.7 Z M102.6,345.6 L69.1,379.1 C63.8,384.4 63.8,392.9 69.1,398.2 C71.7,400.8 75.2,402.1 78.6,402.1 C82,402.1 85.5,400.8 88.1,398.2 L121.6,364.7 C126.9,359.4 126.9,350.9 121.6,345.6 C116.4,340.3 107.8,340.3 102.6,345.6 Z M355.9,124.8 C359.3,124.8 362.8,123.5 365.4,120.9 L398.9,87.4 C404.2,82.1 404.2,73.6 398.9,68.3 C393.6,63 385.1,63 379.8,68.3 L346.3,101.8 C341,107.1 341,115.6 346.3,120.9 C349,123.5 352.4,124.8 355.9,124.8 Z M102.6,120.8 C105.2,123.4 108.7,124.7 112.1,124.7 C115.5,124.7 119,123.4 121.6,120.8 C126.9,115.5 126.9,107 121.6,101.7 L88.1,68.2 C82.8,62.9 74.3,62.9 69,68.2 C63.7,73.5 63.7,82 69,87.3 L102.6,120.8 Z M365.4,345.6 C360.1,340.3 351.6,340.3 346.3,345.6 C341,350.9 341,359.4 346.3,364.7 L379.8,398.2 C382.4,400.8 385.9,402.1 389.3,402.1 C392.7,402.1 396.2,400.8 398.8,398.2 C404.1,392.9 404.1,384.4 398.8,379.1 L365.4,345.6 Z" id="XMLID_49_"></path>
        </g>
    </g>
</svg>